<svg width="402" height="322" viewBox="0 0 402 322" fill="none" xmlns="http://www.w3.org/2000/svg">
<path d="M76.0429 270V235.476H5.8243V206.686L80.256 97.7305H107.875V206.569H129.175V235.476H107.875V270H76.0429ZM76.0429 206.569V147.937L36.6034 206.569H76.0429ZM200.564 97.7305C217.182 97.7305 230.173 103.66 239.535 115.519C250.692 129.563 256.27 152.852 256.27 185.387C256.27 217.843 250.653 241.171 239.418 255.371C230.134 267.074 217.182 272.926 200.564 272.926C183.867 272.926 170.409 266.528 160.188 253.733C149.967 240.859 144.857 217.96 144.857 185.036C144.857 152.735 150.475 129.485 161.709 115.285C170.994 103.582 183.945 97.7305 200.564 97.7305ZM200.564 124.999C196.585 124.999 193.035 126.286 189.914 128.861C186.793 131.357 184.374 135.883 182.658 142.436C180.395 150.941 179.264 165.257 179.264 185.387C179.264 205.516 180.278 219.365 182.307 226.933C184.335 234.423 186.871 239.416 189.914 241.913C193.035 244.409 196.585 245.658 200.564 245.658C204.543 245.658 208.093 244.409 211.214 241.913C214.334 239.338 216.753 234.774 218.469 228.22C220.732 219.794 221.863 205.516 221.863 185.387C221.863 165.257 220.849 151.448 218.821 143.958C216.792 136.39 214.217 131.357 211.097 128.861C208.054 126.286 204.543 124.999 200.564 124.999ZM342.873 270V235.476H272.655V206.686L347.086 97.7305H374.706V206.569H396.005V235.476H374.706V270H342.873ZM342.873 206.569V147.937L303.434 206.569H342.873Z" fill="#1A2668"/>
<path fill-rule="evenodd" clip-rule="evenodd" d="M201.181 7.76607C224.898 18.3826 224.69 61.1689 249.934 67.3313C285.31 75.967 322.21 30.8484 355.566 45.454C382.27 57.1469 378.77 98.1303 385.202 126.561C391.626 154.954 411.944 190.022 393.338 212.411C370.441 239.965 324.7 228.276 290.871 240.076C274.994 245.614 261.368 254.915 246.903 263.49C231.062 272.88 217.733 285.174 201.181 293.243C177.181 304.942 153.963 324.448 127.401 321.746C101.327 319.094 69.8669 304.286 62.5034 279.137C54.012 250.135 92.3598 224.061 89.979 193.936C88.0851 169.971 49.3178 158.273 51.0568 134.297C52.6958 111.699 86.0248 105.481 97.7987 86.1228C111.738 63.2033 104.248 27.8923 125.627 11.6878C145.98 -3.73775 177.871 -2.66786 201.181 7.76607Z" fill="#1A2668" fill-opacity="0.05"/>
<mask id="path-3-inside-1_1615_142837" fill="white">
<rect x="174" y="11" width="19.275" height="19.275" rx="2.75357"/>
</mask>
<rect x="174" y="11" width="19.275" height="19.275" rx="2.75357" stroke="#1A2668" stroke-opacity="0.2" stroke-width="7.34286" mask="url(#path-3-inside-1_1615_142837)"/>
<path d="M37.3783 186.056C37.7316 185.444 38.6148 185.444 38.9681 186.056L45.7246 197.758C46.0779 198.37 45.6363 199.135 44.9297 199.135H31.4166C30.7101 199.135 30.2685 198.37 30.6218 197.758L37.3783 186.056Z" stroke="#1A2668" stroke-opacity="0.2" stroke-width="3.67143"/>
<circle opacity="0.98" cx="357.252" cy="47.2519" r="7.41629" transform="rotate(-180 357.252 47.2519)" stroke="#1A2668" stroke-opacity="0.2" stroke-width="3.67143"/>
<circle opacity="0.7" cx="135.13" cy="95.9887" r="7.63657" transform="rotate(35 135.13 95.9887)" stroke="#1A2668" stroke-opacity="0.2" stroke-width="3.67143"/>
<path opacity="0.92" d="M341.157 256.09C340.742 256.662 339.863 256.569 339.576 255.924L334.361 244.211C334.074 243.565 334.593 242.851 335.295 242.925L348.047 244.265C348.749 244.339 349.109 245.146 348.693 245.717L341.157 256.09Z" stroke="#1A2668" stroke-opacity="0.2" stroke-width="3.67143"/>
<path opacity="0.8" d="M260.978 92.6131C261.613 92.9229 261.674 93.8039 261.089 94.199L250.268 101.498C249.682 101.893 248.888 101.506 248.839 100.801L247.929 87.7805C247.879 87.0756 248.611 86.5818 249.247 86.8915L260.978 92.6131Z" stroke="#1A2668" stroke-opacity="0.2" stroke-width="3.67143"/>
<path opacity="0.9" d="M324.146 100.205C324.195 99.5005 324.989 99.1133 325.574 99.5084L336.777 107.065C337.363 107.46 337.302 108.341 336.666 108.651L324.521 114.574C323.886 114.884 323.154 114.39 323.203 113.685L324.146 100.205Z" stroke="#1A2668" stroke-opacity="0.2" stroke-width="3.67143"/>
<g opacity="0.77">
<mask id="path-10-inside-2_1615_142837" fill="white">
<rect x="2.83594" y="161.121" width="19.6605" height="19.6605" rx="2.75357" transform="rotate(-98 2.83594 161.121)"/>
</mask>
<rect x="2.83594" y="161.121" width="19.6605" height="19.6605" rx="2.75357" transform="rotate(-98 2.83594 161.121)" stroke="#1A2668" stroke-opacity="0.2" stroke-width="7.34286" mask="url(#path-10-inside-2_1615_142837)"/>
</g>
<g opacity="0.89">
<mask id="path-11-inside-3_1615_142837" fill="white">
<rect x="116.283" y="162.956" width="20.046" height="20.046" rx="2.75357" transform="rotate(142 116.283 162.956)"/>
</mask>
<rect x="116.283" y="162.956" width="20.046" height="20.046" rx="2.75357" transform="rotate(142 116.283 162.956)" stroke="#1A2668" stroke-opacity="0.2" stroke-width="7.34286" mask="url(#path-11-inside-3_1615_142837)"/>
</g>
<path opacity="0.97" d="M308.37 281.892C307.964 282.471 307.085 282.394 306.786 281.754L304.009 275.799C303.711 275.159 304.217 274.435 304.921 274.497L311.466 275.07C312.17 275.131 312.543 275.932 312.138 276.511L308.37 281.892Z" stroke="#1A2668" stroke-opacity="0.2" stroke-width="3.67143"/>
<path d="M272.887 203.601C272.801 202.899 273.506 202.368 274.157 202.644L281.503 205.762C282.153 206.038 282.261 206.915 281.697 207.34L275.323 212.143C274.759 212.568 273.946 212.223 273.86 211.522L272.887 203.601Z" stroke="#1A2668" stroke-opacity="0.2" stroke-width="3.67143"/>
<g opacity="0.85">
<mask id="path-14-inside-4_1615_142837" fill="white">
<rect x="344.646" y="170.299" width="12.7215" height="12.7215" rx="2.75357" transform="rotate(153 344.646 170.299)"/>
</mask>
<rect x="344.646" y="170.299" width="12.7215" height="12.7215" rx="2.75357" transform="rotate(153 344.646 170.299)" stroke="#1A2668" stroke-opacity="0.2" stroke-width="7.34286" mask="url(#path-14-inside-4_1615_142837)"/>
</g>
<path opacity="0.8" d="M47.7858 243.253C48.4065 242.916 49.1599 243.376 49.1419 244.083L48.8797 254.365C48.8617 255.072 48.0858 255.494 47.4831 255.125L38.7093 249.757C38.1066 249.388 38.1291 248.505 38.7498 248.167L47.7858 243.253Z" stroke="#1A2668" stroke-opacity="0.2" stroke-width="3.67143"/>
<path opacity="0.88" d="M122.4 257.694C121.875 258.167 121.035 257.894 120.888 257.203L117.36 240.603C117.213 239.912 117.869 239.321 118.541 239.539L134.681 244.784C135.353 245.002 135.537 245.866 135.012 246.339L122.4 257.694Z" stroke="#1A2668" stroke-opacity="0.2" stroke-width="3.67143"/>
<circle opacity="0.83" cx="159.247" cy="297.246" r="10.0597" transform="rotate(110 159.247 297.246)" stroke="#1A2668" stroke-opacity="0.2" stroke-width="3.67143"/>
<g opacity="0.98">
<mask id="path-18-inside-5_1615_142837" fill="white">
<rect x="296.366" y="222.922" width="15.8055" height="15.8055" rx="2.75357" transform="rotate(-23 296.366 222.922)"/>
</mask>
<rect x="296.366" y="222.922" width="15.8055" height="15.8055" rx="2.75357" transform="rotate(-23 296.366 222.922)" stroke="#1A2668" stroke-opacity="0.2" stroke-width="7.34286" mask="url(#path-18-inside-5_1615_142837)"/>
</g>
<g opacity="0.78">
<mask id="path-19-inside-6_1615_142837" fill="white">
<rect x="340.056" y="244.033" width="14.2635" height="14.2635" rx="2.75357" transform="rotate(-86 340.056 244.033)"/>
</mask>
<rect x="340.056" y="244.033" width="14.2635" height="14.2635" rx="2.75357" transform="rotate(-86 340.056 244.033)" stroke="#1A2668" stroke-opacity="0.2" stroke-width="7.34286" mask="url(#path-19-inside-6_1615_142837)"/>
</g>
</svg>
